Coordinates
version=1
nRows=13
nColumns=36
inDegrees=yes

Units are S.I. units (second, meters, Newtons, ...)
If the header above contains a line with 'inDegrees', this indicates whether rotational values are in degrees (yes) or radians (no).

endheader
time	pelvis_tilt	pelvis_list	pelvis_rotation	pelvis_tx	pelvis_ty	pelvis_tz	hip_flexion_r	hip_adduction_r	hip_rotation_r	knee_angle_r	knee_angle_r_beta	ankle_angle_r	subtalar_angle_r	mtp_angle_r	hip_flexion_l	hip_adduction_l	hip_rotation_l	knee_angle_l	knee_angle_l_beta	ankle_angle_l	subtalar_angle_l	mtp_angle_l	lumbar_extension	lumbar_bending	lumbar_rotation	arm_flex_r	arm_add_r	arm_rot_r	elbow_flex_r	pro_sup_r	arm_flex_l	arm_add_l	arm_rot_l	elbow_flex_l	pro_sup_l
      5.11250000	    -25.17834927	     -3.48898661	      2.20217809	      0.54636927	      0.94832549	     -0.05679271	     29.86438101	     -1.52150313	      4.71620266	     15.19328911	      0.26517292	     -2.28209128	    -13.14463983	     -7.49999987	     32.85309197	     -3.42472871	      7.30412180	     24.00885454	      0.41903356	      0.08984241	    -15.00952278	     -7.49999987	    -19.25150023	     -1.68346273	      0.70638000	     23.36657122	      0.21492300	   -346.28057783	     63.87758521	     79.15408605	     21.30337573	     -5.87745342	      8.86570818	     63.64417432	     66.21695543
      5.11666670	    -25.38536018	     -3.53845026	      2.43112987	      0.54894889	      0.94959841	     -0.05443439	     29.61699824	     -1.45567669	      4.55756725	     14.65283557	      0.25574023	     -2.58404600	    -13.20548333	     -7.49999987	     32.72646597	     -3.48538204	      7.30493654	     23.45870756	      0.40943169	     -0.12084897	    -14.84821398	     -7.49999987	    -18.88478513	     -1.83399174	      0.58487863	     23.28115778	      0.35564031	   -345.88860361	     64.04310937	     78.57666283	     20.99943898	     -6.04103362	      8.67220626	     63.63985700	     65.59215098
      5.12083330	    -25.50190461	     -3.51563165	      2.52608612	      0.54947109	      0.95065239	     -0.05595158	     29.39233857	     -1.52884883	      4.48156397	     14.12422142	      0.24651417	     -2.84673147	    -13.11017921	     -7.49999987	     32.47718851	     -3.47072528	      7.24186460	     22.79466916	      0.39784203	     -0.35646439	    -14.41587892	     -7.49999987	    -18.62250008	     -1.95813611	      0.54217547	     23.30396770	      0.49959975	   -345.98949127	     63.95122232	     78.65103125	     20.85172275	     -6.06142196	      8.61485111	     63.49377291	     65.32519122
      5.12500000	    -25.70259741	     -3.55672737	      2.72211915	      0.55298384	      0.94866704	     -0.05409251	     29.12539213	     -1.44035129	      4.36765273	     13.57503752	      0.23692910	     -2.92811207	    -12.94935324	     -7.49999987	     32.29749175	     -3.56377897	      7.28900964	     22.21792827	      0.38777600	     -0.49255864	    -14.19050990	     -7.49999987	    -18.26829187	     -2.08078069	      0.58613587	     23.11000866	      0.65761986	   -345.85874097	     64.12009375	     78.47761664	     20.49843313	     -6.20528680	      8.59067129	     63.39372519	     65.11508150
      5.12916670	    -25.74020959	     -3.49640513	      2.75848027	      0.55324683	      0.94953253	     -0.05967166	     28.88468913	     -1.62976975	      4.31514052	     13.26760108	      0.23156332	     -3.05086833	    -12.77965264	     -7.49999987	     31.92139730	     -3.42893739	      7.24998562	     21.56809579	      0.37643428	     -0.69836403	    -14.10636094	     -7.49999987	    -18.17009768	     -2.06271364	      1.07553091	     22.86320390	      0.51174328	   -346.64652866	     64.73235912	     80.90748593	     20.47547893	     -5.90499603	      9.05469912	     63.08261086	     62.42716712
      5.13333330	    -25.79812043	     -3.54914615	      2.92155167	      0.55764849	      0.95223473	     -0.05687394	     28.47592143	     -1.58585722	      4.33152347	     12.81148095	      0.22360252	     -3.03842935	    -12.66871037	     -7.49999987	     31.51185307	     -3.45972380	      7.28652999	     20.96470297	      0.36590309	     -0.72242803	    -14.08758787	     -7.49999987	    -17.91558172	     -2.04554340	      1.13798964	     22.68408335	      0.51357262	   -346.59826513	     64.76402620	     80.92110780	     20.00373876	     -5.93382244	      9.00791242	     62.91911087	     62.40027688
      5.13750000	    -25.42513923	     -3.49243534	      3.08992000	      0.55815082	      0.95534198	     -0.05247388	     27.56416970	     -1.51914247	      4.20404239	     12.11896854	      0.21151590	     -3.31188667	    -12.54325292	     -7.49999987	     30.48989692	     -3.54692912	      7.27155441	     19.94078061	      0.34803228	     -1.22288106	    -13.98177952	     -7.49999987	    -18.42288422	     -2.31914490	      1.21904731	     22.91796684	      0.81757524	   -346.65600979	     64.61580228	     80.92922266	     20.02749906	     -6.09175486	      8.64372466	     62.63700283	     62.26537650
      5.14166670	    -25.25258616	     -3.50577758	      3.24434911	      0.56134353	      0.95279384	     -0.05651173	     26.91184159	     -1.55177615	      4.14466266	     11.62337821	      0.20286622	     -3.37008601	    -12.30429747	     -7.49999987	     29.77665653	     -3.55629926	      7.27088187	     19.22290549	      0.33550299	     -1.34740959	    -13.83872807	     -7.49999987	    -18.47553052	     -2.39986374	      1.23415519	     22.87165912	      0.87040254	   -346.74890558	     64.61527796	     80.93210177	     19.53713390	     -6.08599580	      8.38536193	     62.61176829	     62.14785547
      5.14583330	    -25.27427381	     -3.47114689	      3.34757027	      0.56151650	      0.95465627	     -0.05535548	     26.54426223	     -1.61399338	      4.01623424	     11.10402183	      0.19380174	     -3.67657462	    -12.31397560	     -7.49999987	     29.38409832	     -3.54544349	      7.20779408	     18.56114023	      0.32395301	     -1.63817229	    -13.77756628	     -7.49999987	    -18.43741715	     -2.56967099	      1.14120463	     23.02682899	      1.04038904	   -346.50723621	     64.45763924	     79.79885202	     19.14956124	     -6.27258189	      7.91482183	     62.61231478	     61.90677884
      5.15000000	    -25.26842431	     -3.45808378	      3.44338677	      0.56317428	      0.95327349	     -0.05434539	     26.23939131	     -1.66994259	      3.98290502	     10.72992701	      0.18727255	     -3.78210318	    -12.49638201	     -7.49999987	     29.07628731	     -3.57007957	      7.06187753	     18.13579020	      0.31652925	     -1.62439571	    -13.39513032	     -7.49999987	    -18.32106524	     -2.72532575	      1.26721848	     22.91976710	      1.15206186	   -346.78403249	     64.48875194	     79.46957286	     18.72893028	     -6.31348741	      7.76783925	     62.44619721	     61.82172532
      5.15416670	    -25.30032576	     -3.44594682	      3.59912864	      0.56527967	      0.95408616	     -0.05668932	     25.95450216	     -1.77423023	      3.90746325	     10.31298873	      0.17999561	     -3.99402871	    -12.56792067	     -7.49999987	     28.78274912	     -3.49824100	      7.03854270	     17.61996205	      0.30752635	     -1.80978267	    -13.11515526	     -7.49999987	    -18.19865777	     -2.82767975	      1.43409382	     22.74626945	      1.14629520	   -347.05823482	     64.64889153	     78.76446942	     18.45190597	     -6.25047611	      7.75743892	     61.92135923	     61.63814869
      5.15833330	    -25.31417702	     -3.41679451	      3.76015356	      0.56565681	      0.95399781	     -0.05557811	     25.67231596	     -1.85949305	      3.74401357	      9.87134206	      0.17228742	     -4.16526146	    -12.73407626	     -7.49999987	     28.57235348	     -3.43892542	      7.01470170	     17.22793451	      0.30068418	     -1.94603004	    -12.94794210	     -7.49999987	    -18.10655705	     -2.93965739	      1.29199526	     22.86272432	      1.24380680	   -346.81530962	     64.51320210	     78.05781239	     17.99841572	     -6.38955685	      7.33847270	     61.83211070	     61.52372862
      5.16250000	    -25.27126337	     -3.36148433	      3.90023008	      0.56858642	      0.95517529	     -0.05765445	     25.28168017	     -1.98998336	      3.71148475	      9.40482047	      0.16414508	     -4.58063722	    -12.90782311	     -7.49999987	     28.17164248	     -3.33796205	      7.11619571	     16.69740017	      0.29142461	     -2.19854134	    -12.86764715	     -7.49999987	    -18.05601774	     -3.01526159	      1.18936998	     22.82666249	      1.29210841	   -346.79967679	     64.26838229	     77.88129955	     17.50869607	     -6.36801413	      7.20423065	     61.29525406	     61.48513742
